<svg width="72" height="72" viewBox="0 0 72 72" fill="none" xmlns="http://www.w3.org/2000/svg">
<g filter="url(#filter0_d_865_4500)">
<circle cx="36" cy="32" r="16" fill="white"/>
</g>
<path d="M35.8519 35.4922C35.8694 35.5146 35.8918 35.5327 35.9174 35.5452C35.943 35.5577 35.9711 35.5641 35.9995 35.5641C36.028 35.5641 36.0561 35.5577 36.0816 35.5452C36.1072 35.5327 36.1296 35.5146 36.1472 35.4922L38.7722 32.1711C38.8683 32.0492 38.7815 31.8687 38.6245 31.8687H36.8878V23.9375C36.8878 23.8344 36.8034 23.75 36.7003 23.75H35.294C35.1909 23.75 35.1065 23.8344 35.1065 23.9375V31.8664H33.3745C33.2175 31.8664 33.1308 32.0469 33.2269 32.1688L35.8519 35.4922ZM44.5776 34.6719H43.1714C43.0683 34.6719 42.9839 34.7562 42.9839 34.8594V38.4688H29.0151V34.8594C29.0151 34.7562 28.9308 34.6719 28.8276 34.6719H27.4214C27.3183 34.6719 27.2339 34.7562 27.2339 34.8594V39.5C27.2339 39.9148 27.569 40.25 27.9839 40.25H44.0151C44.43 40.25 44.7651 39.9148 44.7651 39.5V34.8594C44.7651 34.7562 44.6808 34.6719 44.5776 34.6719Z" fill="#262626"/>
<defs>
<filter id="filter0_d_865_4500" x="0" y="0" width="72" height="72" filterUnits="userSpaceOnUse" color-interpolation-filters="sRGB">
<feFlood flood-opacity="0" result="BackgroundImageFix"/>
<feColorMatrix in="SourceAlpha" type="matrix" values="0 0 0 0 0 0 0 0 0 0 0 0 0 0 0 0 0 0 127 0" result="hardAlpha"/>
<feOffset dy="4"/>
<feGaussianBlur stdDeviation="10"/>
<feComposite in2="hardAlpha" operator="out"/>
<feColorMatrix type="matrix" values="0 0 0 0 0 0 0 0 0 0 0 0 0 0 0 0 0 0 0.11 0"/>
<feBlend mode="normal" in2="BackgroundImageFix" result="effect1_dropShadow_865_4500"/>
<feBlend mode="normal" in="SourceGraphic" in2="effect1_dropShadow_865_4500" result="shape"/>
</filter>
</defs>
</svg>
