<svg width="72" height="72" viewBox="0 0 72 72" fill="none" xmlns="http://www.w3.org/2000/svg">
<g filter="url(#filter0_d_865_4499)">
<circle cx="36" cy="32" r="16" fill="white"/>
</g>
<path d="M45.6328 26.6459C45.3187 25.9185 44.8657 25.2593 44.2992 24.7053C43.7323 24.1496 43.064 23.708 42.3305 23.4045C41.5699 23.0886 40.7541 22.9268 39.9305 22.9287C38.775 22.9287 37.6477 23.2451 36.668 23.8428C36.4336 23.9858 36.2109 24.1428 36 24.3139C35.7891 24.1428 35.5664 23.9858 35.332 23.8428C34.3523 23.2451 33.225 22.9287 32.0695 22.9287C31.2375 22.9287 30.4312 23.0881 29.6695 23.4045C28.9336 23.7092 28.2703 24.1475 27.7008 24.7053C27.1336 25.2587 26.6805 25.918 26.3672 26.6459C26.0414 27.4029 25.875 28.2069 25.875 29.0342C25.875 29.8147 26.0344 30.6279 26.3508 31.4553C26.6156 32.1467 26.9953 32.8639 27.4805 33.5881C28.2492 34.7342 29.3062 35.9295 30.6187 37.1412C32.7937 39.1498 34.9477 40.5373 35.0391 40.5936L35.5945 40.9498C35.8406 41.1069 36.157 41.1069 36.4031 40.9498L36.9586 40.5936C37.05 40.535 39.2016 39.1498 41.3789 37.1412C42.6914 35.9295 43.7484 34.7342 44.5172 33.5881C45.0023 32.8639 45.3844 32.1467 45.6469 31.4553C45.9633 30.6279 46.1227 29.8147 46.1227 29.0342C46.125 28.2069 45.9586 27.4029 45.6328 26.6459ZM36 39.0959C36 39.0959 27.6562 33.7498 27.6562 29.0342C27.6562 26.6459 29.632 24.71 32.0695 24.71C33.7828 24.71 35.2688 25.6662 36 27.0631C36.7312 25.6662 38.2172 24.71 39.9305 24.71C42.368 24.71 44.3438 26.6459 44.3438 29.0342C44.3438 33.7498 36 39.0959 36 39.0959Z" fill="#262626"/>
<defs>
<filter id="filter0_d_865_4499" x="0" y="0" width="72" height="72" filterUnits="userSpaceOnUse" color-interpolation-filters="sRGB">
<feFlood flood-opacity="0" result="BackgroundImageFix"/>
<feColorMatrix in="SourceAlpha" type="matrix" values="0 0 0 0 0 0 0 0 0 0 0 0 0 0 0 0 0 0 127 0" result="hardAlpha"/>
<feOffset dy="4"/>
<feGaussianBlur stdDeviation="10"/>
<feComposite in2="hardAlpha" operator="out"/>
<feColorMatrix type="matrix" values="0 0 0 0 0 0 0 0 0 0 0 0 0 0 0 0 0 0 0.11 0"/>
<feBlend mode="normal" in2="BackgroundImageFix" result="effect1_dropShadow_865_4499"/>
<feBlend mode="normal" in="SourceGraphic" in2="effect1_dropShadow_865_4499" result="shape"/>
</filter>
</defs>
</svg>
