<svg width="11" height="15" viewBox="0 0 11 15" fill="none" xmlns="http://www.w3.org/2000/svg">
<path d="M10.5186 4.22754L7.36621 1.0752C7.27832 0.987305 7.15967 0.9375 7.03516 0.9375H0.8125C0.553223 0.9375 0.34375 1.14697 0.34375 1.40625V13.5938C0.34375 13.853 0.553223 14.0625 0.8125 14.0625H10.1875C10.4468 14.0625 10.6562 13.853 10.6562 13.5938V4.56006C10.6562 4.43555 10.6064 4.31543 10.5186 4.22754ZM9.5752 4.77539H6.81836V2.01855L9.5752 4.77539ZM9.60156 13.0078H1.39844V1.99219H5.82227V5.15625C5.82227 5.31942 5.88708 5.47591 6.00246 5.59129C6.11784 5.70667 6.27433 5.77148 6.4375 5.77148H9.60156V13.0078ZM5.53076 8.49756L4.62549 6.99756C4.59326 6.94482 4.53613 6.9126 4.47461 6.9126H3.91211C3.87842 6.9126 3.84619 6.92139 3.81836 6.94043C3.73633 6.9917 3.71143 7.1001 3.76416 7.18359L4.96973 9.09375L3.74805 11.0391C3.73145 11.0657 3.72228 11.0964 3.72149 11.1278C3.7207 11.1592 3.72831 11.1903 3.74355 11.2177C3.75878 11.2452 3.78108 11.2681 3.80814 11.2841C3.8352 11.3001 3.86604 11.3085 3.89746 11.3086H4.40283C4.46436 11.3086 4.52002 11.2764 4.55225 11.2251L5.4707 9.73828L6.3833 11.2236C6.41553 11.2764 6.47266 11.3071 6.53271 11.3071H7.08203C7.11572 11.3071 7.14795 11.2969 7.17725 11.2793C7.25928 11.2266 7.28271 11.1182 7.22998 11.0361L5.99951 9.12598L7.24902 7.18506C7.26594 7.15846 7.27541 7.12781 7.27646 7.0963C7.27751 7.0648 7.2701 7.03358 7.25499 7.00592C7.23989 6.97825 7.21764 6.95513 7.19057 6.93898C7.1635 6.92282 7.1326 6.91422 7.10107 6.91406H6.57812C6.5166 6.91406 6.45947 6.94629 6.42725 6.99902L5.53076 8.49756V8.49756Z" fill="#262626"/>
</svg>