<svg width="72" height="72" viewBox="0 0 72 72" fill="none" xmlns="http://www.w3.org/2000/svg">
<g filter="url(#filter0_d_865_4498)">
<circle cx="36" cy="32" r="16" fill="white"/>
</g>
<path d="M41.625 35.5625C40.957 35.5625 40.3406 35.7969 39.8578 36.1883L35.0016 32.675C35.0829 32.2287 35.0829 31.7713 35.0016 31.325L39.8578 27.8117C40.3406 28.2031 40.957 28.4375 41.625 28.4375C43.1766 28.4375 44.4375 27.1766 44.4375 25.625C44.4375 24.0734 43.1766 22.8125 41.625 22.8125C40.0734 22.8125 38.8125 24.0734 38.8125 25.625C38.8125 25.8969 38.85 26.157 38.9227 26.4055L34.3102 29.7453C33.6258 28.8383 32.5383 28.25 31.3125 28.25C29.2406 28.25 27.5625 29.9281 27.5625 32C27.5625 34.0719 29.2406 35.75 31.3125 35.75C32.5383 35.75 33.6258 35.1617 34.3102 34.2547L38.9227 37.5945C38.85 37.843 38.8125 38.1055 38.8125 38.375C38.8125 39.9266 40.0734 41.1875 41.625 41.1875C43.1766 41.1875 44.4375 39.9266 44.4375 38.375C44.4375 36.8234 43.1766 35.5625 41.625 35.5625ZM41.625 24.4062C42.2977 24.4062 42.8438 24.9523 42.8438 25.625C42.8438 26.2977 42.2977 26.8438 41.625 26.8438C40.9523 26.8438 40.4062 26.2977 40.4062 25.625C40.4062 24.9523 40.9523 24.4062 41.625 24.4062ZM31.3125 34.0625C30.1758 34.0625 29.25 33.1367 29.25 32C29.25 30.8633 30.1758 29.9375 31.3125 29.9375C32.4492 29.9375 33.375 30.8633 33.375 32C33.375 33.1367 32.4492 34.0625 31.3125 34.0625ZM41.625 39.5938C40.9523 39.5938 40.4062 39.0477 40.4062 38.375C40.4062 37.7023 40.9523 37.1562 41.625 37.1562C42.2977 37.1562 42.8438 37.7023 42.8438 38.375C42.8438 39.0477 42.2977 39.5938 41.625 39.5938Z" fill="#262626"/>
<defs>
<filter id="filter0_d_865_4498" x="0" y="0" width="72" height="72" filterUnits="userSpaceOnUse" color-interpolation-filters="sRGB">
<feFlood flood-opacity="0" result="BackgroundImageFix"/>
<feColorMatrix in="SourceAlpha" type="matrix" values="0 0 0 0 0 0 0 0 0 0 0 0 0 0 0 0 0 0 127 0" result="hardAlpha"/>
<feOffset dy="4"/>
<feGaussianBlur stdDeviation="10"/>
<feComposite in2="hardAlpha" operator="out"/>
<feColorMatrix type="matrix" values="0 0 0 0 0 0 0 0 0 0 0 0 0 0 0 0 0 0 0.11 0"/>
<feBlend mode="normal" in2="BackgroundImageFix" result="effect1_dropShadow_865_4498"/>
<feBlend mode="normal" in="SourceGraphic" in2="effect1_dropShadow_865_4498" result="shape"/>
</filter>
</defs>
</svg>
