<svg width="11" height="15" viewBox="0 0 11 15" fill="none" xmlns="http://www.w3.org/2000/svg">
<path d="M5.78271 8.41406L5.78711 8.39355C5.87207 8.04346 5.979 7.60693 5.89551 7.21143C5.83984 6.89941 5.60986 6.77783 5.41357 6.76904C5.18213 6.75879 4.97559 6.89062 4.92432 7.08252C4.82764 7.43408 4.91406 7.91455 5.07227 8.52685C4.87305 9.00146 4.55518 9.69141 4.32227 10.1016C3.88867 10.3257 3.30713 10.6714 3.2207 11.1079C3.20312 11.1885 3.22363 11.291 3.27197 11.3833C3.32617 11.4858 3.4126 11.5649 3.51367 11.603C3.55762 11.6191 3.61035 11.6323 3.67188 11.6323C3.92969 11.6323 4.34717 11.4243 4.90381 10.4692C4.98877 10.4414 5.07666 10.4121 5.16162 10.3828C5.56006 10.248 5.97314 10.1074 6.34668 10.0444C6.75977 10.2656 7.22998 10.4077 7.54932 10.4077C7.86572 10.4077 7.99023 10.2202 8.03711 10.1074C8.11914 9.90967 8.07959 9.66064 7.94629 9.52734C7.75293 9.33691 7.28271 9.28711 6.55029 9.37793C6.18994 9.1582 5.9541 8.85938 5.78271 8.41406ZM4.17578 10.6392C3.97217 10.9351 3.81836 11.083 3.73486 11.1475C3.83301 10.9673 4.0249 10.7769 4.17578 10.6392ZM5.45898 7.18945C5.53516 7.31982 5.5249 7.71387 5.46631 7.91309C5.39453 7.62158 5.38428 7.2085 5.42676 7.16016C5.43848 7.16162 5.44873 7.17041 5.45898 7.18945ZM5.43555 8.95459C5.59229 9.22559 5.79004 9.4585 6.0083 9.63135C5.69189 9.70312 5.40332 9.82178 5.14551 9.92725C5.08398 9.95215 5.02393 9.97705 4.96533 10.0005C5.16016 9.64746 5.32275 9.24756 5.43555 8.95459ZM7.71484 9.91406C7.71631 9.91699 7.71777 9.92139 7.70898 9.92725H7.70605L7.70313 9.93164C7.69141 9.93896 7.57129 10.0093 7.0542 9.80566C7.64893 9.77783 7.71338 9.9126 7.71484 9.91406ZM10.5186 4.22754L7.36621 1.0752C7.27832 0.987305 7.15967 0.9375 7.03516 0.9375H0.8125C0.553223 0.9375 0.34375 1.14697 0.34375 1.40625V13.5938C0.34375 13.853 0.553223 14.0625 0.8125 14.0625H10.1875C10.4468 14.0625 10.6562 13.853 10.6562 13.5938V4.56006C10.6562 4.43555 10.6064 4.31543 10.5186 4.22754ZM9.5752 4.77539H6.81836V2.01855L9.5752 4.77539ZM9.60156 13.0078H1.39844V1.99219H5.82227V5.15625C5.82227 5.31942 5.88708 5.47591 6.00246 5.59129C6.11784 5.70667 6.27433 5.77148 6.4375 5.77148H9.60156V13.0078Z" fill="#262626"/>
</svg>
